<?xml version="1.0" encoding="UTF-8" standalone="no"?>
<!DOCTYPE svg PUBLIC "-//W3C//DTD SVG 1.1//EN"
 "http://www.w3.org/Graphics/SVG/1.1/DTD/svg11.dtd">
<!-- Generated by graphviz version 2.43.0 (0)
 -->
<!-- Title: G Pages: 1 -->
<svg width="470pt" height="86pt"
 viewBox="0.00 0.00 470.20 86.20" xmlns="http://www.w3.org/2000/svg" xmlns:xlink="http://www.w3.org/1999/xlink">
<g id="graph0" class="graph" transform="scale(1 1) rotate(0) translate(21.6 64.6)">
<title>G</title>
<polygon fill="#111111" stroke="transparent" points="-21.6,21.6 -21.6,-64.6 448.6,-64.6 448.6,21.6 -21.6,21.6"/>
<!-- Api.js -->
<g id="node1" class="node">
<title>Api.js</title>
<path fill="none" stroke="#ff6c60" d="M46.33,-23C46.33,-23 7.67,-23 7.67,-23 3.83,-23 0,-19.17 0,-15.33 0,-15.33 0,-7.67 0,-7.67 0,-3.83 3.83,0 7.67,0 7.67,0 46.33,0 46.33,0 50.17,0 54,-3.83 54,-7.67 54,-7.67 54,-15.33 54,-15.33 54,-19.17 50.17,-23 46.33,-23"/>
<text text-anchor="middle" x="27" y="-7.8" font-family="Arial" font-size="14.00" fill="#ff6c60">Api.js</text>
</g>
<!-- RequestLogger.js -->
<g id="node2" class="node">
<title>RequestLogger.js</title>
<path fill="none" stroke="#ff6c60" d="M204.33,-43C204.33,-43 97.67,-43 97.67,-43 93.83,-43 90,-39.17 90,-35.33 90,-35.33 90,-27.67 90,-27.67 90,-23.83 93.83,-20 97.67,-20 97.67,-20 204.33,-20 204.33,-20 208.17,-20 212,-23.83 212,-27.67 212,-27.67 212,-35.33 212,-35.33 212,-39.17 208.17,-43 204.33,-43"/>
<text text-anchor="middle" x="151" y="-27.8" font-family="Arial" font-size="14.00" fill="#ff6c60">RequestLogger.js</text>
</g>
<!-- Api.js&#45;&gt;RequestLogger.js -->
<g id="edge1" class="edge">
<title>Api.js&#45;&gt;RequestLogger.js</title>
<path fill="none" stroke="#757575" d="M54.17,-15.79C61.88,-17.05 70.71,-18.5 79.82,-20"/>
<polygon fill="#757575" stroke="#757575" points="79.34,-23.46 89.78,-21.63 80.48,-16.56 79.34,-23.46"/>
</g>
<!-- Cache/StreamInfoCache.js -->
<g id="node3" class="node">
<title>Cache/StreamInfoCache.js</title>
<path fill="none" stroke="#ff6c60" d="M419.33,-23C419.33,-23 255.67,-23 255.67,-23 251.83,-23 248,-19.17 248,-15.33 248,-15.33 248,-7.67 248,-7.67 248,-3.83 251.83,0 255.67,0 255.67,0 419.33,0 419.33,0 423.17,0 427,-3.83 427,-7.67 427,-7.67 427,-15.33 427,-15.33 427,-19.17 423.17,-23 419.33,-23"/>
<text text-anchor="middle" x="337.5" y="-7.8" font-family="Arial" font-size="14.00" fill="#ff6c60">Cache/StreamInfoCache.js</text>
</g>
<!-- RequestLogger.js&#45;&gt;Cache/StreamInfoCache.js -->
<g id="edge3" class="edge">
<title>RequestLogger.js&#45;&gt;Cache/StreamInfoCache.js</title>
<path fill="none" stroke="#757575" d="M212.16,-24.98C220.48,-24.08 229.21,-23.13 238.01,-22.18"/>
<polygon fill="#757575" stroke="#757575" points="238.4,-25.65 247.97,-21.1 237.65,-18.7 238.4,-25.65"/>
</g>
<!-- Cache/StreamInfoCache.js&#45;&gt;Api.js -->
<g id="edge2" class="edge">
<title>Cache/StreamInfoCache.js&#45;&gt;Api.js</title>
<path fill="none" stroke="#757575" d="M247.68,-11.5C186.67,-11.5 108.89,-11.5 64.14,-11.5"/>
<polygon fill="#757575" stroke="#757575" points="64.04,-8 54.04,-11.5 64.04,-15 64.04,-8"/>
</g>
</g>
</svg>
