<?xml version="1.0" encoding="UTF-8" standalone="no"?>
<!DOCTYPE svg PUBLIC "-//W3C//DTD SVG 1.1//EN"
 "http://www.w3.org/Graphics/SVG/1.1/DTD/svg11.dtd">
<!-- Generated by graphviz version 2.43.0 (0)
 -->
<!-- Title: G Pages: 1 -->
<svg width="1978pt" height="685pt"
 viewBox="0.00 0.00 1978.20 684.70" xmlns="http://www.w3.org/2000/svg" xmlns:xlink="http://www.w3.org/1999/xlink">
<g id="graph0" class="graph" transform="scale(1 1) rotate(0) translate(21.6 663.1)">
<title>G</title>
<polygon fill="#111111" stroke="transparent" points="-21.6,21.6 -21.6,-663.1 1956.6,-663.1 1956.6,21.6 -21.6,21.6"/>
<!-- Aggregator.js -->
<g id="node1" class="node">
<title>Aggregator.js</title>
<path fill="none" stroke="#c6c5fe" d="M397.33,-250.5C397.33,-250.5 316.67,-250.5 316.67,-250.5 312.83,-250.5 309,-246.67 309,-242.83 309,-242.83 309,-235.17 309,-235.17 309,-231.33 312.83,-227.5 316.67,-227.5 316.67,-227.5 397.33,-227.5 397.33,-227.5 401.17,-227.5 405,-231.33 405,-235.17 405,-235.17 405,-242.83 405,-242.83 405,-246.67 401.17,-250.5 397.33,-250.5"/>
<text text-anchor="middle" x="357" y="-235.3" font-family="Arial" font-size="14.00" fill="#c6c5fe">Aggregator.js</text>
</g>
<!-- Utils/getTopKChannels.js -->
<g id="node2" class="node">
<title>Utils/getTopKChannels.js</title>
<path fill="none" stroke="#c6c5fe" d="M633.33,-250.5C633.33,-250.5 481.67,-250.5 481.67,-250.5 477.83,-250.5 474,-246.67 474,-242.83 474,-242.83 474,-235.17 474,-235.17 474,-231.33 477.83,-227.5 481.67,-227.5 481.67,-227.5 633.33,-227.5 633.33,-227.5 637.17,-227.5 641,-231.33 641,-235.17 641,-235.17 641,-242.83 641,-242.83 641,-246.67 637.17,-250.5 633.33,-250.5"/>
<text text-anchor="middle" x="557.5" y="-235.3" font-family="Arial" font-size="14.00" fill="#c6c5fe">Utils/getTopKChannels.js</text>
</g>
<!-- Aggregator.js&#45;&gt;Utils/getTopKChannels.js -->
<g id="edge1" class="edge">
<title>Aggregator.js&#45;&gt;Utils/getTopKChannels.js</title>
<path fill="none" stroke="#757575" d="M405.04,-239C422.6,-239 443.2,-239 463.46,-239"/>
<polygon fill="#757575" stroke="#757575" points="463.68,-242.5 473.68,-239 463.68,-235.5 463.68,-242.5"/>
</g>
<!-- Twitch.js -->
<g id="node14" class="node">
<title>Twitch.js</title>
<path fill="none" stroke="#c6c5fe" d="M797.33,-250.5C797.33,-250.5 744.67,-250.5 744.67,-250.5 740.83,-250.5 737,-246.67 737,-242.83 737,-242.83 737,-235.17 737,-235.17 737,-231.33 740.83,-227.5 744.67,-227.5 744.67,-227.5 797.33,-227.5 797.33,-227.5 801.17,-227.5 805,-231.33 805,-235.17 805,-235.17 805,-242.83 805,-242.83 805,-246.67 801.17,-250.5 797.33,-250.5"/>
<text text-anchor="middle" x="771" y="-235.3" font-family="Arial" font-size="14.00" fill="#c6c5fe">Twitch.js</text>
</g>
<!-- Utils/getTopKChannels.js&#45;&gt;Twitch.js -->
<g id="edge30" class="edge">
<title>Utils/getTopKChannels.js&#45;&gt;Twitch.js</title>
<path fill="none" stroke="#757575" d="M641.18,-239C670.38,-239 702.04,-239 726.67,-239"/>
<polygon fill="#757575" stroke="#757575" points="726.76,-242.5 736.76,-239 726.76,-235.5 726.76,-242.5"/>
</g>
<!-- Api.js -->
<g id="node3" class="node">
<title>Api.js</title>
<path fill="none" stroke="#c6c5fe" d="M1324.33,-245.5C1324.33,-245.5 1285.67,-245.5 1285.67,-245.5 1281.83,-245.5 1278,-241.67 1278,-237.83 1278,-237.83 1278,-230.17 1278,-230.17 1278,-226.33 1281.83,-222.5 1285.67,-222.5 1285.67,-222.5 1324.33,-222.5 1324.33,-222.5 1328.17,-222.5 1332,-226.33 1332,-230.17 1332,-230.17 1332,-237.83 1332,-237.83 1332,-241.67 1328.17,-245.5 1324.33,-245.5"/>
<text text-anchor="middle" x="1305" y="-230.3" font-family="Arial" font-size="14.00" fill="#c6c5fe">Api.js</text>
</g>
<!-- Cache/DNSCache.js -->
<g id="node4" class="node">
<title>Cache/DNSCache.js</title>
<path fill="none" stroke="#c6c5fe" d="M1500.33,-205.5C1500.33,-205.5 1375.67,-205.5 1375.67,-205.5 1371.83,-205.5 1368,-201.67 1368,-197.83 1368,-197.83 1368,-190.17 1368,-190.17 1368,-186.33 1371.83,-182.5 1375.67,-182.5 1375.67,-182.5 1500.33,-182.5 1500.33,-182.5 1504.17,-182.5 1508,-186.33 1508,-190.17 1508,-190.17 1508,-197.83 1508,-197.83 1508,-201.67 1504.17,-205.5 1500.33,-205.5"/>
<text text-anchor="middle" x="1438" y="-190.3" font-family="Arial" font-size="14.00" fill="#c6c5fe">Cache/DNSCache.js</text>
</g>
<!-- Api.js&#45;&gt;Cache/DNSCache.js -->
<g id="edge2" class="edge">
<title>Api.js&#45;&gt;Cache/DNSCache.js</title>
<path fill="none" stroke="#757575" d="M1332.19,-226C1348.47,-221.03 1369.89,-214.49 1389.12,-208.62"/>
<polygon fill="#757575" stroke="#757575" points="1390.39,-211.89 1398.93,-205.62 1388.35,-205.2 1390.39,-211.89"/>
</g>
<!-- RequestLogger.js -->
<g id="node5" class="node">
<title>RequestLogger.js</title>
<path fill="none" stroke="#c6c5fe" d="M1837.33,-245.5C1837.33,-245.5 1730.67,-245.5 1730.67,-245.5 1726.83,-245.5 1723,-241.67 1723,-237.83 1723,-237.83 1723,-230.17 1723,-230.17 1723,-226.33 1726.83,-222.5 1730.67,-222.5 1730.67,-222.5 1837.33,-222.5 1837.33,-222.5 1841.17,-222.5 1845,-226.33 1845,-230.17 1845,-230.17 1845,-237.83 1845,-237.83 1845,-241.67 1841.17,-245.5 1837.33,-245.5"/>
<text text-anchor="middle" x="1784" y="-230.3" font-family="Arial" font-size="14.00" fill="#c6c5fe">RequestLogger.js</text>
</g>
<!-- Api.js&#45;&gt;RequestLogger.js -->
<g id="edge3" class="edge">
<title>Api.js&#45;&gt;RequestLogger.js</title>
<path fill="none" stroke="#757575" d="M1332.33,-234C1404.13,-234 1605.18,-234 1712.85,-234"/>
<polygon fill="#757575" stroke="#757575" points="1712.97,-237.5 1722.97,-234 1712.97,-230.5 1712.97,-237.5"/>
</g>
<!-- Cache/BaseCache.js -->
<g id="node6" class="node">
<title>Cache/BaseCache.js</title>
<path fill="none" stroke="#c6c5fe" d="M1679.33,-205.5C1679.33,-205.5 1551.67,-205.5 1551.67,-205.5 1547.83,-205.5 1544,-201.67 1544,-197.83 1544,-197.83 1544,-190.17 1544,-190.17 1544,-186.33 1547.83,-182.5 1551.67,-182.5 1551.67,-182.5 1679.33,-182.5 1679.33,-182.5 1683.17,-182.5 1687,-186.33 1687,-190.17 1687,-190.17 1687,-197.83 1687,-197.83 1687,-201.67 1683.17,-205.5 1679.33,-205.5"/>
<text text-anchor="middle" x="1615.5" y="-190.3" font-family="Arial" font-size="14.00" fill="#c6c5fe">Cache/BaseCache.js</text>
</g>
<!-- Cache/DNSCache.js&#45;&gt;Cache/BaseCache.js -->
<g id="edge5" class="edge">
<title>Cache/DNSCache.js&#45;&gt;Cache/BaseCache.js</title>
<path fill="none" stroke="#757575" d="M1508.11,-194C1516.43,-194 1524.98,-194 1533.45,-194"/>
<polygon fill="#757575" stroke="#757575" points="1533.72,-197.5 1543.72,-194 1533.72,-190.5 1533.72,-197.5"/>
</g>
<!-- Pen.js -->
<g id="node12" class="node">
<title>Pen.js</title>
<path fill="none" stroke="#cfffac" d="M1927.33,-302.5C1927.33,-302.5 1888.67,-302.5 1888.67,-302.5 1884.83,-302.5 1881,-298.67 1881,-294.83 1881,-294.83 1881,-287.17 1881,-287.17 1881,-283.33 1884.83,-279.5 1888.67,-279.5 1888.67,-279.5 1927.33,-279.5 1927.33,-279.5 1931.17,-279.5 1935,-283.33 1935,-287.17 1935,-287.17 1935,-294.83 1935,-294.83 1935,-298.67 1931.17,-302.5 1927.33,-302.5"/>
<text text-anchor="middle" x="1908" y="-287.3" font-family="Arial" font-size="14.00" fill="#cfffac">Pen.js</text>
</g>
<!-- RequestLogger.js&#45;&gt;Pen.js -->
<g id="edge17" class="edge">
<title>RequestLogger.js&#45;&gt;Pen.js</title>
<path fill="none" stroke="#757575" d="M1809.69,-245.53C1827.96,-254.07 1853.07,-265.8 1873.2,-275.21"/>
<polygon fill="#757575" stroke="#757575" points="1871.81,-278.42 1882.35,-279.48 1874.77,-272.08 1871.81,-278.42"/>
</g>
<!-- Cache/BaseCache.js&#45;&gt;RequestLogger.js -->
<g id="edge4" class="edge">
<title>Cache/BaseCache.js&#45;&gt;RequestLogger.js</title>
<path fill="none" stroke="#757575" d="M1664.66,-205.57C1683.56,-210.11 1705.41,-215.36 1725.15,-220.1"/>
<polygon fill="#757575" stroke="#757575" points="1724.41,-223.52 1734.95,-222.46 1726.04,-216.72 1724.41,-223.52"/>
</g>
<!-- Cache/StreamInfoCache.js -->
<g id="node7" class="node">
<title>Cache/StreamInfoCache.js</title>
<path fill="none" stroke="#c6c5fe" d="M1234.33,-165.5C1234.33,-165.5 1070.67,-165.5 1070.67,-165.5 1066.83,-165.5 1063,-161.67 1063,-157.83 1063,-157.83 1063,-150.17 1063,-150.17 1063,-146.33 1066.83,-142.5 1070.67,-142.5 1070.67,-142.5 1234.33,-142.5 1234.33,-142.5 1238.17,-142.5 1242,-146.33 1242,-150.17 1242,-150.17 1242,-157.83 1242,-157.83 1242,-161.67 1238.17,-165.5 1234.33,-165.5"/>
<text text-anchor="middle" x="1152.5" y="-150.3" font-family="Arial" font-size="14.00" fill="#c6c5fe">Cache/StreamInfoCache.js</text>
</g>
<!-- Cache/StreamInfoCache.js&#45;&gt;Api.js -->
<g id="edge6" class="edge">
<title>Cache/StreamInfoCache.js&#45;&gt;Api.js</title>
<path fill="none" stroke="#757575" d="M1175.38,-165.63C1201.13,-179.32 1244.05,-202.13 1273.16,-217.61"/>
<polygon fill="#757575" stroke="#757575" points="1271.62,-220.75 1282.09,-222.35 1274.9,-214.57 1271.62,-220.75"/>
</g>
<!-- Cache/StreamInfoCache.js&#45;&gt;Cache/BaseCache.js -->
<g id="edge7" class="edge">
<title>Cache/StreamInfoCache.js&#45;&gt;Cache/BaseCache.js</title>
<path fill="none" stroke="#757575" d="M1242.31,-155.29C1314.2,-157.17 1417.94,-161.76 1508,-173 1522.89,-174.86 1538.82,-177.59 1553.7,-180.48"/>
<polygon fill="#757575" stroke="#757575" points="1553.32,-183.97 1563.82,-182.49 1554.69,-177.1 1553.32,-183.97"/>
</g>
<!-- Checker.js -->
<g id="node8" class="node">
<title>Checker.js</title>
<path fill="none" stroke="#cfffac" d="M94.83,-190.5C94.83,-190.5 30.17,-190.5 30.17,-190.5 26.33,-190.5 22.5,-186.67 22.5,-182.83 22.5,-182.83 22.5,-175.17 22.5,-175.17 22.5,-171.33 26.33,-167.5 30.17,-167.5 30.17,-167.5 94.83,-167.5 94.83,-167.5 98.67,-167.5 102.5,-171.33 102.5,-175.17 102.5,-175.17 102.5,-182.83 102.5,-182.83 102.5,-186.67 98.67,-190.5 94.83,-190.5"/>
<text text-anchor="middle" x="62.5" y="-175.3" font-family="Arial" font-size="14.00" fill="#cfffac">Checker.js</text>
</g>
<!-- DataAccess/index.js -->
<g id="node9" class="node">
<title>DataAccess/index.js</title>
<path fill="none" stroke="#c6c5fe" d="M418.33,-209.5C418.33,-209.5 295.67,-209.5 295.67,-209.5 291.83,-209.5 288,-205.67 288,-201.83 288,-201.83 288,-194.17 288,-194.17 288,-190.33 291.83,-186.5 295.67,-186.5 295.67,-186.5 418.33,-186.5 418.33,-186.5 422.17,-186.5 426,-190.33 426,-194.17 426,-194.17 426,-201.83 426,-201.83 426,-205.67 422.17,-209.5 418.33,-209.5"/>
<text text-anchor="middle" x="357" y="-194.3" font-family="Arial" font-size="14.00" fill="#c6c5fe">DataAccess/index.js</text>
</g>
<!-- DataAccess/transaction&#45;db.js -->
<g id="node10" class="node">
<title>DataAccess/transaction&#45;db.js</title>
<path fill="none" stroke="#cfffac" d="M645.33,-209.5C645.33,-209.5 469.67,-209.5 469.67,-209.5 465.83,-209.5 462,-205.67 462,-201.83 462,-201.83 462,-194.17 462,-194.17 462,-190.33 465.83,-186.5 469.67,-186.5 469.67,-186.5 645.33,-186.5 645.33,-186.5 649.17,-186.5 653,-190.33 653,-194.17 653,-194.17 653,-201.83 653,-201.83 653,-205.67 649.17,-209.5 645.33,-209.5"/>
<text text-anchor="middle" x="557.5" y="-194.3" font-family="Arial" font-size="14.00" fill="#cfffac">DataAccess/transaction&#45;db.js</text>
</g>
<!-- DataAccess/index.js&#45;&gt;DataAccess/transaction&#45;db.js -->
<g id="edge8" class="edge">
<title>DataAccess/index.js&#45;&gt;DataAccess/transaction&#45;db.js</title>
<path fill="none" stroke="#757575" d="M426.03,-198C434.34,-198 442.98,-198 451.67,-198"/>
<polygon fill="#757575" stroke="#757575" points="451.88,-201.5 461.88,-198 451.88,-194.5 451.88,-201.5"/>
</g>
<!-- DataAccess/redis&#45;client.js -->
<g id="node11" class="node">
<title>DataAccess/redis&#45;client.js</title>
<path fill="none" stroke="#c6c5fe" d="M1230.33,-359.5C1230.33,-359.5 1074.67,-359.5 1074.67,-359.5 1070.83,-359.5 1067,-355.67 1067,-351.83 1067,-351.83 1067,-344.17 1067,-344.17 1067,-340.33 1070.83,-336.5 1074.67,-336.5 1074.67,-336.5 1230.33,-336.5 1230.33,-336.5 1234.17,-336.5 1238,-340.33 1238,-344.17 1238,-344.17 1238,-351.83 1238,-351.83 1238,-355.67 1234.17,-359.5 1230.33,-359.5"/>
<text text-anchor="middle" x="1152.5" y="-344.3" font-family="Arial" font-size="14.00" fill="#c6c5fe">DataAccess/redis&#45;client.js</text>
</g>
<!-- DataAccess/redis&#45;client.js&#45;&gt;Api.js -->
<g id="edge9" class="edge">
<title>DataAccess/redis&#45;client.js&#45;&gt;Api.js</title>
<path fill="none" stroke="#757575" d="M1213.19,-336.46C1223.36,-332.86 1233.41,-328.15 1242,-322 1266.18,-304.69 1284.25,-274.9 1294.47,-254.83"/>
<polygon fill="#757575" stroke="#757575" points="1297.73,-256.12 1298.97,-245.6 1291.44,-253.06 1297.73,-256.12"/>
</g>
<!-- DataAccess/redis&#45;client.js&#45;&gt;Pen.js -->
<g id="edge10" class="edge">
<title>DataAccess/redis&#45;client.js&#45;&gt;Pen.js</title>
<path fill="none" stroke="#757575" d="M1228.81,-336.49C1285.82,-328.77 1366.15,-320 1437,-320 1437,-320 1437,-320 1616.5,-320 1708.4,-320 1815.85,-305.45 1870.72,-296.96"/>
<polygon fill="#757575" stroke="#757575" points="1871.32,-300.41 1880.65,-295.4 1870.23,-293.5 1871.32,-300.41"/>
</g>
<!-- Probe.js -->
<g id="node13" class="node">
<title>Probe.js</title>
<path fill="none" stroke="#c6c5fe" d="M231.83,-149.5C231.83,-149.5 181.17,-149.5 181.17,-149.5 177.33,-149.5 173.5,-145.67 173.5,-141.83 173.5,-141.83 173.5,-134.17 173.5,-134.17 173.5,-130.33 177.33,-126.5 181.17,-126.5 181.17,-126.5 231.83,-126.5 231.83,-126.5 235.67,-126.5 239.5,-130.33 239.5,-134.17 239.5,-134.17 239.5,-141.83 239.5,-141.83 239.5,-145.67 235.67,-149.5 231.83,-149.5"/>
<text text-anchor="middle" x="206.5" y="-134.3" font-family="Arial" font-size="14.00" fill="#c6c5fe">Probe.js</text>
</g>
<!-- Probe.js&#45;&gt;Aggregator.js -->
<g id="edge11" class="edge">
<title>Probe.js&#45;&gt;Aggregator.js</title>
<path fill="none" stroke="#757575" d="M216.02,-149.76C229.39,-167.38 257,-200.53 288,-219 291.63,-221.16 295.5,-223.1 299.5,-224.84"/>
<polygon fill="#757575" stroke="#757575" points="298.38,-228.16 308.97,-228.55 300.93,-221.65 298.38,-228.16"/>
</g>
<!-- Probe.js&#45;&gt;DataAccess/index.js -->
<g id="edge12" class="edge">
<title>Probe.js&#45;&gt;DataAccess/index.js</title>
<path fill="none" stroke="#757575" d="M234.24,-149.57C249.86,-156.25 269.98,-164.75 288,-172 296.87,-175.57 306.43,-179.3 315.51,-182.78"/>
<polygon fill="#757575" stroke="#757575" points="314.52,-186.15 325.11,-186.45 317.01,-179.61 314.52,-186.15"/>
</g>
<!-- Probe.js&#45;&gt;Pen.js -->
<g id="edge13" class="edge">
<title>Probe.js&#45;&gt;Pen.js</title>
<path fill="none" stroke="#757575" d="M217.33,-126.45C231.29,-110.91 258.46,-83.78 288,-71 398.35,-23.27 436.27,-38 556.5,-38 556.5,-38 556.5,-38 1616.5,-38 1722.21,-38 1768.81,-30.72 1845,-104 1891.89,-149.1 1903.33,-230.43 1906.11,-269.24"/>
<polygon fill="#757575" stroke="#757575" points="1902.63,-269.64 1906.71,-279.42 1909.62,-269.23 1902.63,-269.64"/>
</g>
<!-- Probe.js&#45;&gt;Twitch.js -->
<g id="edge14" class="edge">
<title>Probe.js&#45;&gt;Twitch.js</title>
<path fill="none" stroke="#757575" d="M239.8,-139.16C328.68,-142.62 575.38,-154.06 653,-177 686.86,-187.01 722.21,-207.33 745.07,-221.98"/>
<polygon fill="#757575" stroke="#757575" points="743.2,-224.94 753.48,-227.48 747.03,-219.08 743.2,-224.94"/>
</g>
<!-- Utils/controllerApi.js -->
<g id="node15" class="node">
<title>Utils/controllerApi.js</title>
<path fill="none" stroke="#cfffac" d="M416.83,-129.5C416.83,-129.5 297.17,-129.5 297.17,-129.5 293.33,-129.5 289.5,-125.67 289.5,-121.83 289.5,-121.83 289.5,-114.17 289.5,-114.17 289.5,-110.33 293.33,-106.5 297.17,-106.5 297.17,-106.5 416.83,-106.5 416.83,-106.5 420.67,-106.5 424.5,-110.33 424.5,-114.17 424.5,-114.17 424.5,-121.83 424.5,-121.83 424.5,-125.67 420.67,-129.5 416.83,-129.5"/>
<text text-anchor="middle" x="357" y="-114.3" font-family="Arial" font-size="14.00" fill="#cfffac">Utils/controllerApi.js</text>
</g>
<!-- Probe.js&#45;&gt;Utils/controllerApi.js -->
<g id="edge15" class="edge">
<title>Probe.js&#45;&gt;Utils/controllerApi.js</title>
<path fill="none" stroke="#757575" d="M239.72,-133.66C251.46,-132.08 265.29,-130.22 279.23,-128.34"/>
<polygon fill="#757575" stroke="#757575" points="279.94,-131.78 289.38,-126.97 279,-124.84 279.94,-131.78"/>
</g>
<!-- Utils/intervalGenerator.js -->
<g id="node16" class="node">
<title>Utils/intervalGenerator.js</title>
<path fill="none" stroke="#c6c5fe" d="M845.33,-89.5C845.33,-89.5 696.67,-89.5 696.67,-89.5 692.83,-89.5 689,-85.67 689,-81.83 689,-81.83 689,-74.17 689,-74.17 689,-70.33 692.83,-66.5 696.67,-66.5 696.67,-66.5 845.33,-66.5 845.33,-66.5 849.17,-66.5 853,-70.33 853,-74.17 853,-74.17 853,-81.83 853,-81.83 853,-85.67 849.17,-89.5 845.33,-89.5"/>
<text text-anchor="middle" x="771" y="-74.3" font-family="Arial" font-size="14.00" fill="#c6c5fe">Utils/intervalGenerator.js</text>
</g>
<!-- Probe.js&#45;&gt;Utils/intervalGenerator.js -->
<g id="edge16" class="edge">
<title>Probe.js&#45;&gt;Utils/intervalGenerator.js</title>
<path fill="none" stroke="#757575" d="M224.83,-126.37C240.56,-116.52 264.78,-103.06 288,-97 420.46,-62.44 580.28,-64.27 678.52,-70.11"/>
<polygon fill="#757575" stroke="#757575" points="678.51,-73.61 688.71,-70.74 678.95,-66.63 678.51,-73.61"/>
</g>
<!-- Twitch.js&#45;&gt;Api.js -->
<g id="edge22" class="edge">
<title>Twitch.js&#45;&gt;Api.js</title>
<path fill="none" stroke="#757575" d="M794.11,-250.6C817.1,-261.95 854.47,-278.46 889,-285 1043.5,-314.28 1090.07,-301.57 1242,-261 1252.29,-258.25 1263.08,-254.06 1272.72,-249.79"/>
<polygon fill="#757575" stroke="#757575" points="1274.3,-252.92 1281.91,-245.55 1271.36,-246.56 1274.3,-252.92"/>
</g>
<!-- Twitch.js&#45;&gt;Cache/StreamInfoCache.js -->
<g id="edge23" class="edge">
<title>Twitch.js&#45;&gt;Cache/StreamInfoCache.js</title>
<path fill="none" stroke="#757575" d="M797.99,-227.47C821.37,-217.52 856.89,-203.45 889,-195 942.31,-180.97 1003.06,-171.1 1052.68,-164.57"/>
<polygon fill="#757575" stroke="#757575" points="1053.3,-168.02 1062.77,-163.27 1052.41,-161.08 1053.3,-168.02"/>
</g>
<!-- Utils/getChannels.js -->
<g id="node19" class="node">
<title>Utils/getChannels.js</title>
<path fill="none" stroke="#c6c5fe" d="M1018.33,-275.5C1018.33,-275.5 897.67,-275.5 897.67,-275.5 893.83,-275.5 890,-271.67 890,-267.83 890,-267.83 890,-260.17 890,-260.17 890,-256.33 893.83,-252.5 897.67,-252.5 897.67,-252.5 1018.33,-252.5 1018.33,-252.5 1022.17,-252.5 1026,-256.33 1026,-260.17 1026,-260.17 1026,-267.83 1026,-267.83 1026,-271.67 1022.17,-275.5 1018.33,-275.5"/>
<text text-anchor="middle" x="958" y="-260.3" font-family="Arial" font-size="14.00" fill="#c6c5fe">Utils/getChannels.js</text>
</g>
<!-- Twitch.js&#45;&gt;Utils/getChannels.js -->
<g id="edge24" class="edge">
<title>Twitch.js&#45;&gt;Utils/getChannels.js</title>
<path fill="none" stroke="#757575" d="M805.07,-243.47C825.9,-246.28 853.7,-250.04 879.82,-253.57"/>
<polygon fill="#757575" stroke="#757575" points="879.35,-257.04 889.73,-254.91 880.29,-250.1 879.35,-257.04"/>
</g>
<!-- Utils/getEdgeAddr.js -->
<g id="node20" class="node">
<title>Utils/getEdgeAddr.js</title>
<path fill="none" stroke="#c6c5fe" d="M1019.33,-226.5C1019.33,-226.5 896.67,-226.5 896.67,-226.5 892.83,-226.5 889,-222.67 889,-218.83 889,-218.83 889,-211.17 889,-211.17 889,-207.33 892.83,-203.5 896.67,-203.5 896.67,-203.5 1019.33,-203.5 1019.33,-203.5 1023.17,-203.5 1027,-207.33 1027,-211.17 1027,-211.17 1027,-218.83 1027,-218.83 1027,-222.67 1023.17,-226.5 1019.33,-226.5"/>
<text text-anchor="middle" x="958" y="-211.3" font-family="Arial" font-size="14.00" fill="#c6c5fe">Utils/getEdgeAddr.js</text>
</g>
<!-- Twitch.js&#45;&gt;Utils/getEdgeAddr.js -->
<g id="edge25" class="edge">
<title>Twitch.js&#45;&gt;Utils/getEdgeAddr.js</title>
<path fill="none" stroke="#757575" d="M805.07,-234.71C825.63,-232.04 852.97,-228.5 878.78,-225.15"/>
<polygon fill="#757575" stroke="#757575" points="879.5,-228.58 888.97,-223.83 878.6,-221.64 879.5,-228.58"/>
</g>
<!-- Utils/intervalGenerator.js&#45;&gt;Pen.js -->
<g id="edge31" class="edge">
<title>Utils/intervalGenerator.js&#45;&gt;Pen.js</title>
<path fill="none" stroke="#757575" d="M853.06,-77.33C929.9,-76.75 1048.55,-76 1151.5,-76 1151.5,-76 1151.5,-76 1616.5,-76 1746.99,-76 1857.18,-217.89 1893.94,-271.13"/>
<polygon fill="#757575" stroke="#757575" points="1891.06,-273.13 1899.57,-279.44 1896.86,-269.2 1891.06,-273.13"/>
</g>
<!-- README.md -->
<g id="node17" class="node">
<title>README.md</title>
<path fill="none" stroke="#cfffac" d="M103.83,-231.5C103.83,-231.5 21.17,-231.5 21.17,-231.5 17.33,-231.5 13.5,-227.67 13.5,-223.83 13.5,-223.83 13.5,-216.17 13.5,-216.17 13.5,-212.33 17.33,-208.5 21.17,-208.5 21.17,-208.5 103.83,-208.5 103.83,-208.5 107.67,-208.5 111.5,-212.33 111.5,-216.17 111.5,-216.17 111.5,-223.83 111.5,-223.83 111.5,-227.67 107.67,-231.5 103.83,-231.5"/>
<text text-anchor="middle" x="62.5" y="-216.3" font-family="Arial" font-size="14.00" fill="#cfffac">README.md</text>
</g>
<!-- TestProbe.js -->
<g id="node18" class="node">
<title>TestProbe.js</title>
<path fill="none" stroke="#c6c5fe" d="M244.33,-270.5C244.33,-270.5 168.67,-270.5 168.67,-270.5 164.83,-270.5 161,-266.67 161,-262.83 161,-262.83 161,-255.17 161,-255.17 161,-251.33 164.83,-247.5 168.67,-247.5 168.67,-247.5 244.33,-247.5 244.33,-247.5 248.17,-247.5 252,-251.33 252,-255.17 252,-255.17 252,-262.83 252,-262.83 252,-266.67 248.17,-270.5 244.33,-270.5"/>
<text text-anchor="middle" x="206.5" y="-255.3" font-family="Arial" font-size="14.00" fill="#c6c5fe">TestProbe.js</text>
</g>
<!-- TestProbe.js&#45;&gt;Aggregator.js -->
<g id="edge18" class="edge">
<title>TestProbe.js&#45;&gt;Aggregator.js</title>
<path fill="none" stroke="#757575" d="M252.05,-253C266.77,-251.02 283.35,-248.78 298.88,-246.69"/>
<polygon fill="#757575" stroke="#757575" points="299.45,-250.15 308.9,-245.34 298.52,-243.21 299.45,-250.15"/>
</g>
<!-- TestProbe.js&#45;&gt;DataAccess/index.js -->
<g id="edge19" class="edge">
<title>TestProbe.js&#45;&gt;DataAccess/index.js</title>
<path fill="none" stroke="#757575" d="M228.59,-247.34C244.59,-238.8 267.28,-227.28 288,-219 293.44,-216.83 299.2,-214.74 304.96,-212.78"/>
<polygon fill="#757575" stroke="#757575" points="306.22,-216.05 314.63,-209.6 304.04,-209.39 306.22,-216.05"/>
</g>
<!-- TestProbe.js&#45;&gt;Pen.js -->
<g id="edge20" class="edge">
<title>TestProbe.js&#45;&gt;Pen.js</title>
<path fill="none" stroke="#757575" d="M225.18,-270.68C275.02,-302.43 421.82,-388 556.5,-388 556.5,-388 556.5,-388 1616.5,-388 1717.11,-388 1827.7,-335 1878.55,-307.36"/>
<polygon fill="#757575" stroke="#757575" points="1880.27,-310.41 1887.33,-302.51 1876.89,-304.28 1880.27,-310.41"/>
</g>
<!-- TestProbe.js&#45;&gt;Twitch.js -->
<g id="edge21" class="edge">
<title>TestProbe.js&#45;&gt;Twitch.js</title>
<path fill="none" stroke="#757575" d="M252.2,-261.78C332.58,-266.19 506.82,-273.01 653,-260 677.67,-257.8 704.91,-253.05 726.91,-248.62"/>
<polygon fill="#757575" stroke="#757575" points="727.84,-252 736.93,-246.56 726.43,-245.15 727.84,-252"/>
</g>
<!-- Utils/getChannels.js&#45;&gt;Api.js -->
<g id="edge26" class="edge">
<title>Utils/getChannels.js&#45;&gt;Api.js</title>
<path fill="none" stroke="#757575" d="M1026.34,-258.14C1098.52,-251.87 1210.43,-242.14 1267.63,-237.16"/>
<polygon fill="#757575" stroke="#757575" points="1267.99,-240.64 1277.65,-236.29 1267.39,-233.67 1267.99,-240.64"/>
</g>
<!-- Utils/getEdgeAddr.js&#45;&gt;Api.js -->
<g id="edge27" class="edge">
<title>Utils/getEdgeAddr.js&#45;&gt;Api.js</title>
<path fill="none" stroke="#757575" d="M1027.16,-218.75C1099.29,-222.73 1210.42,-228.85 1267.46,-231.99"/>
<polygon fill="#757575" stroke="#757575" points="1267.61,-235.5 1277.79,-232.56 1268,-228.51 1267.61,-235.5"/>
</g>
<!-- Utils/getEdgeAddr.js&#45;&gt;Cache/DNSCache.js -->
<g id="edge28" class="edge">
<title>Utils/getEdgeAddr.js&#45;&gt;Cache/DNSCache.js</title>
<path fill="none" stroke="#757575" d="M1027.23,-212C1114.5,-208.17 1265.35,-201.54 1357.66,-197.49"/>
<polygon fill="#757575" stroke="#757575" points="1357.95,-200.98 1367.79,-197.04 1357.64,-193.98 1357.95,-200.98"/>
</g>
<!-- Utils/getEdgeAddr.js&#45;&gt;Cache/StreamInfoCache.js -->
<g id="edge29" class="edge">
<title>Utils/getEdgeAddr.js&#45;&gt;Cache/StreamInfoCache.js</title>
<path fill="none" stroke="#757575" d="M992.15,-203.48C1012.52,-196.49 1039.2,-187.5 1063,-180 1075.29,-176.13 1088.6,-172.12 1101.08,-168.45"/>
<polygon fill="#757575" stroke="#757575" points="1102.25,-171.75 1110.87,-165.58 1100.29,-165.03 1102.25,-171.75"/>
</g>
<!-- Utils/getAllEdge.js -->
<g id="node21" class="node">
<title>Utils/getAllEdge.js</title>
<path fill="none" stroke="#cfffac" d="M117.33,-272.5C117.33,-272.5 7.67,-272.5 7.67,-272.5 3.83,-272.5 0,-268.67 0,-264.83 0,-264.83 0,-257.17 0,-257.17 0,-253.33 3.83,-249.5 7.67,-249.5 7.67,-249.5 117.33,-249.5 117.33,-249.5 121.17,-249.5 125,-253.33 125,-257.17 125,-257.17 125,-264.83 125,-264.83 125,-268.67 121.17,-272.5 117.33,-272.5"/>
<text text-anchor="middle" x="62.5" y="-257.3" font-family="Arial" font-size="14.00" fill="#cfffac">Utils/getAllEdge.js</text>
</g>
<!-- Utils/service.js -->
<g id="node22" class="node">
<title>Utils/service.js</title>
<path fill="none" stroke="#cfffac" d="M106.33,-313.5C106.33,-313.5 18.67,-313.5 18.67,-313.5 14.83,-313.5 11,-309.67 11,-305.83 11,-305.83 11,-298.17 11,-298.17 11,-294.33 14.83,-290.5 18.67,-290.5 18.67,-290.5 106.33,-290.5 106.33,-290.5 110.17,-290.5 114,-294.33 114,-298.17 114,-298.17 114,-305.83 114,-305.83 114,-309.67 110.17,-313.5 106.33,-313.5"/>
<text text-anchor="middle" x="62.5" y="-298.3" font-family="Arial" font-size="14.00" fill="#cfffac">Utils/service.js</text>
</g>
<!-- app.js -->
<g id="node23" class="node">
<title>app.js</title>
<path fill="none" stroke="#c6c5fe" d="M81.83,-149.5C81.83,-149.5 43.17,-149.5 43.17,-149.5 39.33,-149.5 35.5,-145.67 35.5,-141.83 35.5,-141.83 35.5,-134.17 35.5,-134.17 35.5,-130.33 39.33,-126.5 43.17,-126.5 43.17,-126.5 81.83,-126.5 81.83,-126.5 85.67,-126.5 89.5,-130.33 89.5,-134.17 89.5,-134.17 89.5,-141.83 89.5,-141.83 89.5,-145.67 85.67,-149.5 81.83,-149.5"/>
<text text-anchor="middle" x="62.5" y="-134.3" font-family="Arial" font-size="14.00" fill="#c6c5fe">app.js</text>
</g>
<!-- app.js&#45;&gt;Api.js -->
<g id="edge32" class="edge">
<title>app.js&#45;&gt;Api.js</title>
<path fill="none" stroke="#757575" d="M76.73,-126.47C116.22,-93.3 237.81,0 356,0 356,0 356,0 772,0 989.09,0 1068.92,-1.96 1242,-133 1269.17,-153.57 1287.14,-189.8 1296.43,-212.82"/>
<polygon fill="#757575" stroke="#757575" points="1293.25,-214.28 1300.1,-222.36 1299.78,-211.77 1293.25,-214.28"/>
</g>
<!-- app.js&#45;&gt;Pen.js -->
<g id="edge33" class="edge">
<title>app.js&#45;&gt;Pen.js</title>
<path fill="none" stroke="#757575" d="M89.79,-140.89C101.97,-143.51 115.76,-148.5 125,-158 164.42,-198.52 128.73,-233.58 161,-280 222.8,-368.89 247.73,-426 356,-426 356,-426 356,-426 1616.5,-426 1721.96,-426 1755.82,-418.29 1845,-362 1865.48,-349.08 1882.99,-327.37 1894.13,-311.36"/>
<polygon fill="#757575" stroke="#757575" points="1897.28,-312.95 1899.93,-302.69 1891.46,-309.06 1897.28,-312.95"/>
</g>
<!-- app.js&#45;&gt;Probe.js -->
<g id="edge34" class="edge">
<title>app.js&#45;&gt;Probe.js</title>
<path fill="none" stroke="#757575" d="M89.54,-138C110.12,-138 139.25,-138 163.17,-138"/>
<polygon fill="#757575" stroke="#757575" points="163.4,-141.5 173.4,-138 163.4,-134.5 163.4,-141.5"/>
</g>
<!-- circular&#45;deps.svg -->
<g id="node24" class="node">
<title>circular&#45;deps.svg</title>
<path fill="none" stroke="#cfffac" d="M114.33,-354.5C114.33,-354.5 10.67,-354.5 10.67,-354.5 6.83,-354.5 3,-350.67 3,-346.83 3,-346.83 3,-339.17 3,-339.17 3,-335.33 6.83,-331.5 10.67,-331.5 10.67,-331.5 114.33,-331.5 114.33,-331.5 118.17,-331.5 122,-335.33 122,-339.17 122,-339.17 122,-346.83 122,-346.83 122,-350.67 118.17,-354.5 114.33,-354.5"/>
<text text-anchor="middle" x="62.5" y="-339.3" font-family="Arial" font-size="14.00" fill="#cfffac">circular&#45;deps.svg</text>
</g>
<!-- full&#45;deps.svg -->
<g id="node25" class="node">
<title>full&#45;deps.svg</title>
<path fill="none" stroke="#cfffac" d="M100.83,-395.5C100.83,-395.5 24.17,-395.5 24.17,-395.5 20.33,-395.5 16.5,-391.67 16.5,-387.83 16.5,-387.83 16.5,-380.17 16.5,-380.17 16.5,-376.33 20.33,-372.5 24.17,-372.5 24.17,-372.5 100.83,-372.5 100.83,-372.5 104.67,-372.5 108.5,-376.33 108.5,-380.17 108.5,-380.17 108.5,-387.83 108.5,-387.83 108.5,-391.67 104.67,-395.5 100.83,-395.5"/>
<text text-anchor="middle" x="62.5" y="-380.3" font-family="Arial" font-size="14.00" fill="#cfffac">full&#45;deps.svg</text>
</g>
<!-- nordvpn_start.sh -->
<g id="node26" class="node">
<title>nordvpn_start.sh</title>
<path fill="none" stroke="#cfffac" d="M113.33,-436.5C113.33,-436.5 11.67,-436.5 11.67,-436.5 7.83,-436.5 4,-432.67 4,-428.83 4,-428.83 4,-421.17 4,-421.17 4,-417.33 7.83,-413.5 11.67,-413.5 11.67,-413.5 113.33,-413.5 113.33,-413.5 117.17,-413.5 121,-417.33 121,-421.17 121,-421.17 121,-428.83 121,-428.83 121,-432.67 117.17,-436.5 113.33,-436.5"/>
<text text-anchor="middle" x="62.5" y="-421.3" font-family="Arial" font-size="14.00" fill="#cfffac">nordvpn_start.sh</text>
</g>
<!-- nordvpn_test.sh -->
<g id="node27" class="node">
<title>nordvpn_test.sh</title>
<path fill="none" stroke="#cfffac" d="M111.33,-477.5C111.33,-477.5 13.67,-477.5 13.67,-477.5 9.83,-477.5 6,-473.67 6,-469.83 6,-469.83 6,-462.17 6,-462.17 6,-458.33 9.83,-454.5 13.67,-454.5 13.67,-454.5 111.33,-454.5 111.33,-454.5 115.17,-454.5 119,-458.33 119,-462.17 119,-462.17 119,-469.83 119,-469.83 119,-473.67 115.17,-477.5 111.33,-477.5"/>
<text text-anchor="middle" x="62.5" y="-462.3" font-family="Arial" font-size="14.00" fill="#cfffac">nordvpn_test.sh</text>
</g>
<!-- package&#45;lock.json -->
<g id="node28" class="node">
<title>package&#45;lock.json</title>
<path fill="none" stroke="#cfffac" d="M117.33,-518.5C117.33,-518.5 7.67,-518.5 7.67,-518.5 3.83,-518.5 0,-514.67 0,-510.83 0,-510.83 0,-503.17 0,-503.17 0,-499.33 3.83,-495.5 7.67,-495.5 7.67,-495.5 117.33,-495.5 117.33,-495.5 121.17,-495.5 125,-499.33 125,-503.17 125,-503.17 125,-510.83 125,-510.83 125,-514.67 121.17,-518.5 117.33,-518.5"/>
<text text-anchor="middle" x="62.5" y="-503.3" font-family="Arial" font-size="14.00" fill="#cfffac">package&#45;lock.json</text>
</g>
<!-- package.json -->
<g id="node29" class="node">
<title>package.json</title>
<path fill="none" stroke="#cfffac" d="M102.83,-559.5C102.83,-559.5 22.17,-559.5 22.17,-559.5 18.33,-559.5 14.5,-555.67 14.5,-551.83 14.5,-551.83 14.5,-544.17 14.5,-544.17 14.5,-540.33 18.33,-536.5 22.17,-536.5 22.17,-536.5 102.83,-536.5 102.83,-536.5 106.67,-536.5 110.5,-540.33 110.5,-544.17 110.5,-544.17 110.5,-551.83 110.5,-551.83 110.5,-555.67 106.67,-559.5 102.83,-559.5"/>
<text text-anchor="middle" x="62.5" y="-544.3" font-family="Arial" font-size="14.00" fill="#cfffac">package.json</text>
</g>
<!-- start.sh -->
<g id="node30" class="node">
<title>start.sh</title>
<path fill="none" stroke="#cfffac" d="M85.33,-600.5C85.33,-600.5 39.67,-600.5 39.67,-600.5 35.83,-600.5 32,-596.67 32,-592.83 32,-592.83 32,-585.17 32,-585.17 32,-581.33 35.83,-577.5 39.67,-577.5 39.67,-577.5 85.33,-577.5 85.33,-577.5 89.17,-577.5 93,-581.33 93,-585.17 93,-585.17 93,-592.83 93,-592.83 93,-596.67 89.17,-600.5 85.33,-600.5"/>
<text text-anchor="middle" x="62.5" y="-585.3" font-family="Arial" font-size="14.00" fill="#cfffac">start.sh</text>
</g>
<!-- test_probe.sh -->
<g id="node31" class="node">
<title>test_probe.sh</title>
<path fill="none" stroke="#cfffac" d="M103.83,-641.5C103.83,-641.5 21.17,-641.5 21.17,-641.5 17.33,-641.5 13.5,-637.67 13.5,-633.83 13.5,-633.83 13.5,-626.17 13.5,-626.17 13.5,-622.33 17.33,-618.5 21.17,-618.5 21.17,-618.5 103.83,-618.5 103.83,-618.5 107.67,-618.5 111.5,-622.33 111.5,-626.17 111.5,-626.17 111.5,-633.83 111.5,-633.83 111.5,-637.67 107.67,-641.5 103.83,-641.5"/>
<text text-anchor="middle" x="62.5" y="-626.3" font-family="Arial" font-size="14.00" fill="#cfffac">test_probe.sh</text>
</g>
</g>
</svg>
