<?xml version="1.0" encoding="UTF-8" standalone="no"?>
<!DOCTYPE svg PUBLIC "-//W3C//DTD SVG 1.1//EN"
 "http://www.w3.org/Graphics/SVG/1.1/DTD/svg11.dtd">
<!-- Generated by graphviz version 2.43.0 (0)
 -->
<!-- Title: G Pages: 1 -->
<svg width="1745pt" height="642pt"
 viewBox="0.00 0.00 1745.20 641.70" xmlns="http://www.w3.org/2000/svg" xmlns:xlink="http://www.w3.org/1999/xlink">
<g id="graph0" class="graph" transform="scale(1 1) rotate(0) translate(21.6 620.1)">
<title>G</title>
<polygon fill="#111111" stroke="transparent" points="-21.6,21.6 -21.6,-620.1 1723.6,-620.1 1723.6,21.6 -21.6,21.6"/>
<!-- Aggregator.js -->
<g id="node1" class="node">
<title>Aggregator.js</title>
<path fill="none" stroke="#c6c5fe" d="M397.33,-287.5C397.33,-287.5 316.67,-287.5 316.67,-287.5 312.83,-287.5 309,-283.67 309,-279.83 309,-279.83 309,-272.17 309,-272.17 309,-268.33 312.83,-264.5 316.67,-264.5 316.67,-264.5 397.33,-264.5 397.33,-264.5 401.17,-264.5 405,-268.33 405,-272.17 405,-272.17 405,-279.83 405,-279.83 405,-283.67 401.17,-287.5 397.33,-287.5"/>
<text text-anchor="middle" x="357" y="-272.3" font-family="Arial" font-size="14.00" fill="#c6c5fe">Aggregator.js</text>
</g>
<!-- Utils/getTopKChannels.js -->
<g id="node2" class="node">
<title>Utils/getTopKChannels.js</title>
<path fill="none" stroke="#c6c5fe" d="M633.33,-287.5C633.33,-287.5 481.67,-287.5 481.67,-287.5 477.83,-287.5 474,-283.67 474,-279.83 474,-279.83 474,-272.17 474,-272.17 474,-268.33 477.83,-264.5 481.67,-264.5 481.67,-264.5 633.33,-264.5 633.33,-264.5 637.17,-264.5 641,-268.33 641,-272.17 641,-272.17 641,-279.83 641,-279.83 641,-283.67 637.17,-287.5 633.33,-287.5"/>
<text text-anchor="middle" x="557.5" y="-272.3" font-family="Arial" font-size="14.00" fill="#c6c5fe">Utils/getTopKChannels.js</text>
</g>
<!-- Aggregator.js&#45;&gt;Utils/getTopKChannels.js -->
<g id="edge1" class="edge">
<title>Aggregator.js&#45;&gt;Utils/getTopKChannels.js</title>
<path fill="none" stroke="#757575" d="M405.04,-276C422.6,-276 443.2,-276 463.46,-276"/>
<polygon fill="#757575" stroke="#757575" points="463.68,-279.5 473.68,-276 463.68,-272.5 463.68,-279.5"/>
</g>
<!-- Twitch.js -->
<g id="node14" class="node">
<title>Twitch.js</title>
<path fill="none" stroke="#c6c5fe" d="M797.33,-325.5C797.33,-325.5 744.67,-325.5 744.67,-325.5 740.83,-325.5 737,-321.67 737,-317.83 737,-317.83 737,-310.17 737,-310.17 737,-306.33 740.83,-302.5 744.67,-302.5 744.67,-302.5 797.33,-302.5 797.33,-302.5 801.17,-302.5 805,-306.33 805,-310.17 805,-310.17 805,-317.83 805,-317.83 805,-321.67 801.17,-325.5 797.33,-325.5"/>
<text text-anchor="middle" x="771" y="-310.3" font-family="Arial" font-size="14.00" fill="#c6c5fe">Twitch.js</text>
</g>
<!-- Utils/getTopKChannels.js&#45;&gt;Twitch.js -->
<g id="edge31" class="edge">
<title>Utils/getTopKChannels.js&#45;&gt;Twitch.js</title>
<path fill="none" stroke="#757575" d="M622.53,-287.5C656.25,-293.56 696.7,-300.83 726.7,-306.22"/>
<polygon fill="#757575" stroke="#757575" points="726.39,-309.72 736.85,-308.04 727.63,-302.83 726.39,-309.72"/>
</g>
<!-- Api.js -->
<g id="node3" class="node">
<title>Api.js</title>
<path fill="none" stroke="#ff6c60" d="M1142.33,-324.5C1142.33,-324.5 1103.67,-324.5 1103.67,-324.5 1099.83,-324.5 1096,-320.67 1096,-316.83 1096,-316.83 1096,-309.17 1096,-309.17 1096,-305.33 1099.83,-301.5 1103.67,-301.5 1103.67,-301.5 1142.33,-301.5 1142.33,-301.5 1146.17,-301.5 1150,-305.33 1150,-309.17 1150,-309.17 1150,-316.83 1150,-316.83 1150,-320.67 1146.17,-324.5 1142.33,-324.5"/>
<text text-anchor="middle" x="1123" y="-309.3" font-family="Arial" font-size="14.00" fill="#ff6c60">Api.js</text>
</g>
<!-- Cache/DNSCache.js -->
<g id="node4" class="node">
<title>Cache/DNSCache.js</title>
<path fill="none" stroke="#c6c5fe" d="M1495.83,-322.5C1495.83,-322.5 1371.17,-322.5 1371.17,-322.5 1367.33,-322.5 1363.5,-318.67 1363.5,-314.83 1363.5,-314.83 1363.5,-307.17 1363.5,-307.17 1363.5,-303.33 1367.33,-299.5 1371.17,-299.5 1371.17,-299.5 1495.83,-299.5 1495.83,-299.5 1499.67,-299.5 1503.5,-303.33 1503.5,-307.17 1503.5,-307.17 1503.5,-314.83 1503.5,-314.83 1503.5,-318.67 1499.67,-322.5 1495.83,-322.5"/>
<text text-anchor="middle" x="1433.5" y="-307.3" font-family="Arial" font-size="14.00" fill="#c6c5fe">Cache/DNSCache.js</text>
</g>
<!-- Api.js&#45;&gt;Cache/DNSCache.js -->
<g id="edge2" class="edge">
<title>Api.js&#45;&gt;Cache/DNSCache.js</title>
<path fill="none" stroke="#757575" d="M1150.02,-301.54C1160.91,-297.34 1173.84,-293.09 1186,-291 1248.74,-280.2 1321.5,-288.62 1371.63,-297.62"/>
<polygon fill="#757575" stroke="#757575" points="1371.18,-301.1 1381.65,-299.48 1372.46,-294.21 1371.18,-301.1"/>
</g>
<!-- RequestLogger.js -->
<g id="node5" class="node">
<title>RequestLogger.js</title>
<path fill="none" stroke="#ff6c60" d="M1300.33,-322.5C1300.33,-322.5 1193.67,-322.5 1193.67,-322.5 1189.83,-322.5 1186,-318.67 1186,-314.83 1186,-314.83 1186,-307.17 1186,-307.17 1186,-303.33 1189.83,-299.5 1193.67,-299.5 1193.67,-299.5 1300.33,-299.5 1300.33,-299.5 1304.17,-299.5 1308,-303.33 1308,-307.17 1308,-307.17 1308,-314.83 1308,-314.83 1308,-318.67 1304.17,-322.5 1300.33,-322.5"/>
<text text-anchor="middle" x="1247" y="-307.3" font-family="Arial" font-size="14.00" fill="#ff6c60">RequestLogger.js</text>
</g>
<!-- Api.js&#45;&gt;RequestLogger.js -->
<g id="edge3" class="edge">
<title>Api.js&#45;&gt;RequestLogger.js</title>
<path fill="none" stroke="#757575" d="M1150.17,-312.57C1157.8,-312.45 1166.53,-312.3 1175.53,-312.16"/>
<polygon fill="#757575" stroke="#757575" points="1175.84,-315.65 1185.78,-311.99 1175.72,-308.65 1175.84,-315.65"/>
</g>
<!-- Cache/BaseCache.js -->
<g id="node6" class="node">
<title>Cache/BaseCache.js</title>
<path fill="none" stroke="#cfffac" d="M1694.33,-342.5C1694.33,-342.5 1566.67,-342.5 1566.67,-342.5 1562.83,-342.5 1559,-338.67 1559,-334.83 1559,-334.83 1559,-327.17 1559,-327.17 1559,-323.33 1562.83,-319.5 1566.67,-319.5 1566.67,-319.5 1694.33,-319.5 1694.33,-319.5 1698.17,-319.5 1702,-323.33 1702,-327.17 1702,-327.17 1702,-334.83 1702,-334.83 1702,-338.67 1698.17,-342.5 1694.33,-342.5"/>
<text text-anchor="middle" x="1630.5" y="-327.3" font-family="Arial" font-size="14.00" fill="#cfffac">Cache/BaseCache.js</text>
</g>
<!-- Cache/DNSCache.js&#45;&gt;Cache/BaseCache.js -->
<g id="edge4" class="edge">
<title>Cache/DNSCache.js&#45;&gt;Cache/BaseCache.js</title>
<path fill="none" stroke="#757575" d="M1503.52,-318.08C1518.12,-319.58 1533.66,-321.17 1548.65,-322.71"/>
<polygon fill="#757575" stroke="#757575" points="1548.62,-326.22 1558.92,-323.76 1549.33,-319.26 1548.62,-326.22"/>
</g>
<!-- RequestLogger.js&#45;&gt;Cache/DNSCache.js -->
<g id="edge16" class="edge">
<title>RequestLogger.js&#45;&gt;Cache/DNSCache.js</title>
<path fill="none" stroke="#757575" d="M1308.16,-311C1322.51,-311 1338.05,-311 1353.12,-311"/>
<polygon fill="#757575" stroke="#757575" points="1353.46,-314.5 1363.46,-311 1353.46,-307.5 1353.46,-314.5"/>
</g>
<!-- Cache/StreamInfoCache.js -->
<g id="node7" class="node">
<title>Cache/StreamInfoCache.js</title>
<path fill="none" stroke="#ff6c60" d="M1515.33,-363.5C1515.33,-363.5 1351.67,-363.5 1351.67,-363.5 1347.83,-363.5 1344,-359.67 1344,-355.83 1344,-355.83 1344,-348.17 1344,-348.17 1344,-344.33 1347.83,-340.5 1351.67,-340.5 1351.67,-340.5 1515.33,-340.5 1515.33,-340.5 1519.17,-340.5 1523,-344.33 1523,-348.17 1523,-348.17 1523,-355.83 1523,-355.83 1523,-359.67 1519.17,-363.5 1515.33,-363.5"/>
<text text-anchor="middle" x="1433.5" y="-348.3" font-family="Arial" font-size="14.00" fill="#ff6c60">Cache/StreamInfoCache.js</text>
</g>
<!-- RequestLogger.js&#45;&gt;Cache/StreamInfoCache.js -->
<g id="edge17" class="edge">
<title>RequestLogger.js&#45;&gt;Cache/StreamInfoCache.js</title>
<path fill="none" stroke="#757575" d="M1299.88,-322.53C1321.89,-327.42 1347.71,-333.16 1370.69,-338.26"/>
<polygon fill="#757575" stroke="#757575" points="1370.16,-341.73 1380.69,-340.49 1371.68,-334.9 1370.16,-341.73"/>
</g>
<!-- Pen.js -->
<g id="node12" class="node">
<title>Pen.js</title>
<path fill="none" stroke="#cfffac" d="M1452.83,-168.5C1452.83,-168.5 1414.17,-168.5 1414.17,-168.5 1410.33,-168.5 1406.5,-164.67 1406.5,-160.83 1406.5,-160.83 1406.5,-153.17 1406.5,-153.17 1406.5,-149.33 1410.33,-145.5 1414.17,-145.5 1414.17,-145.5 1452.83,-145.5 1452.83,-145.5 1456.67,-145.5 1460.5,-149.33 1460.5,-153.17 1460.5,-153.17 1460.5,-160.83 1460.5,-160.83 1460.5,-164.67 1456.67,-168.5 1452.83,-168.5"/>
<text text-anchor="middle" x="1433.5" y="-153.3" font-family="Arial" font-size="14.00" fill="#cfffac">Pen.js</text>
</g>
<!-- RequestLogger.js&#45;&gt;Pen.js -->
<g id="edge18" class="edge">
<title>RequestLogger.js&#45;&gt;Pen.js</title>
<path fill="none" stroke="#757575" d="M1261.87,-299.42C1293.66,-272.89 1372,-207.5 1410.46,-175.39"/>
<polygon fill="#757575" stroke="#757575" points="1413.04,-177.8 1418.47,-168.71 1408.55,-172.43 1413.04,-177.8"/>
</g>
<!-- Cache/StreamInfoCache.js&#45;&gt;Api.js -->
<g id="edge5" class="edge">
<title>Cache/StreamInfoCache.js&#45;&gt;Api.js</title>
<path fill="none" stroke="#757575" d="M1343.74,-349.44C1296.56,-346.91 1237.76,-341.91 1186,-332 1177.42,-330.36 1168.34,-327.96 1159.85,-325.43"/>
<polygon fill="#757575" stroke="#757575" points="1160.82,-322.06 1150.23,-322.42 1158.73,-328.74 1160.82,-322.06"/>
</g>
<!-- Cache/StreamInfoCache.js&#45;&gt;Cache/BaseCache.js -->
<g id="edge6" class="edge">
<title>Cache/StreamInfoCache.js&#45;&gt;Cache/BaseCache.js</title>
<path fill="none" stroke="#757575" d="M1523.16,-342.45C1531.67,-341.54 1540.27,-340.61 1548.7,-339.7"/>
<polygon fill="#757575" stroke="#757575" points="1549.31,-343.16 1558.88,-338.61 1548.56,-336.2 1549.31,-343.16"/>
</g>
<!-- Checker.js -->
<g id="node8" class="node">
<title>Checker.js</title>
<path fill="none" stroke="#cfffac" d="M94.83,-188.5C94.83,-188.5 30.17,-188.5 30.17,-188.5 26.33,-188.5 22.5,-184.67 22.5,-180.83 22.5,-180.83 22.5,-173.17 22.5,-173.17 22.5,-169.33 26.33,-165.5 30.17,-165.5 30.17,-165.5 94.83,-165.5 94.83,-165.5 98.67,-165.5 102.5,-169.33 102.5,-173.17 102.5,-173.17 102.5,-180.83 102.5,-180.83 102.5,-184.67 98.67,-188.5 94.83,-188.5"/>
<text text-anchor="middle" x="62.5" y="-173.3" font-family="Arial" font-size="14.00" fill="#cfffac">Checker.js</text>
</g>
<!-- DataAccess/index.js -->
<g id="node9" class="node">
<title>DataAccess/index.js</title>
<path fill="none" stroke="#c6c5fe" d="M418.33,-207.5C418.33,-207.5 295.67,-207.5 295.67,-207.5 291.83,-207.5 288,-203.67 288,-199.83 288,-199.83 288,-192.17 288,-192.17 288,-188.33 291.83,-184.5 295.67,-184.5 295.67,-184.5 418.33,-184.5 418.33,-184.5 422.17,-184.5 426,-188.33 426,-192.17 426,-192.17 426,-199.83 426,-199.83 426,-203.67 422.17,-207.5 418.33,-207.5"/>
<text text-anchor="middle" x="357" y="-192.3" font-family="Arial" font-size="14.00" fill="#c6c5fe">DataAccess/index.js</text>
</g>
<!-- DataAccess/transaction&#45;db.js -->
<g id="node10" class="node">
<title>DataAccess/transaction&#45;db.js</title>
<path fill="none" stroke="#cfffac" d="M645.33,-207.5C645.33,-207.5 469.67,-207.5 469.67,-207.5 465.83,-207.5 462,-203.67 462,-199.83 462,-199.83 462,-192.17 462,-192.17 462,-188.33 465.83,-184.5 469.67,-184.5 469.67,-184.5 645.33,-184.5 645.33,-184.5 649.17,-184.5 653,-188.33 653,-192.17 653,-192.17 653,-199.83 653,-199.83 653,-203.67 649.17,-207.5 645.33,-207.5"/>
<text text-anchor="middle" x="557.5" y="-192.3" font-family="Arial" font-size="14.00" fill="#cfffac">DataAccess/transaction&#45;db.js</text>
</g>
<!-- DataAccess/index.js&#45;&gt;DataAccess/transaction&#45;db.js -->
<g id="edge7" class="edge">
<title>DataAccess/index.js&#45;&gt;DataAccess/transaction&#45;db.js</title>
<path fill="none" stroke="#757575" d="M426.03,-196C434.34,-196 442.98,-196 451.67,-196"/>
<polygon fill="#757575" stroke="#757575" points="451.88,-199.5 461.88,-196 451.88,-192.5 451.88,-199.5"/>
</g>
<!-- DataAccess/redis&#45;client.js -->
<g id="node11" class="node">
<title>DataAccess/redis&#45;client.js</title>
<path fill="none" stroke="#c6c5fe" d="M1052.33,-246.5C1052.33,-246.5 896.67,-246.5 896.67,-246.5 892.83,-246.5 889,-242.67 889,-238.83 889,-238.83 889,-231.17 889,-231.17 889,-227.33 892.83,-223.5 896.67,-223.5 896.67,-223.5 1052.33,-223.5 1052.33,-223.5 1056.17,-223.5 1060,-227.33 1060,-231.17 1060,-231.17 1060,-238.83 1060,-238.83 1060,-242.67 1056.17,-246.5 1052.33,-246.5"/>
<text text-anchor="middle" x="974.5" y="-231.3" font-family="Arial" font-size="14.00" fill="#c6c5fe">DataAccess/redis&#45;client.js</text>
</g>
<!-- DataAccess/redis&#45;client.js&#45;&gt;Api.js -->
<g id="edge8" class="edge">
<title>DataAccess/redis&#45;client.js&#45;&gt;Api.js</title>
<path fill="none" stroke="#757575" d="M1037.32,-246.51C1045.19,-249.08 1052.94,-252.2 1060,-256 1077.53,-265.43 1093.96,-280.96 1105.49,-293.42"/>
<polygon fill="#757575" stroke="#757575" points="1103.05,-295.95 1112.32,-301.08 1108.28,-291.29 1103.05,-295.95"/>
</g>
<!-- DataAccess/redis&#45;client.js&#45;&gt;Pen.js -->
<g id="edge9" class="edge">
<title>DataAccess/redis&#45;client.js&#45;&gt;Pen.js</title>
<path fill="none" stroke="#757575" d="M1060.01,-235.73C1127.91,-234.58 1225.26,-228.97 1308,-209 1341.17,-200.99 1376.9,-185.26 1401.54,-173.19"/>
<polygon fill="#757575" stroke="#757575" points="1403.35,-176.2 1410.73,-168.6 1400.22,-169.94 1403.35,-176.2"/>
</g>
<!-- Probe.js -->
<g id="node13" class="node">
<title>Probe.js</title>
<path fill="none" stroke="#c6c5fe" d="M231.83,-147.5C231.83,-147.5 181.17,-147.5 181.17,-147.5 177.33,-147.5 173.5,-143.67 173.5,-139.83 173.5,-139.83 173.5,-132.17 173.5,-132.17 173.5,-128.33 177.33,-124.5 181.17,-124.5 181.17,-124.5 231.83,-124.5 231.83,-124.5 235.67,-124.5 239.5,-128.33 239.5,-132.17 239.5,-132.17 239.5,-139.83 239.5,-139.83 239.5,-143.67 235.67,-147.5 231.83,-147.5"/>
<text text-anchor="middle" x="206.5" y="-132.3" font-family="Arial" font-size="14.00" fill="#c6c5fe">Probe.js</text>
</g>
<!-- Probe.js&#45;&gt;Aggregator.js -->
<g id="edge10" class="edge">
<title>Probe.js&#45;&gt;Aggregator.js</title>
<path fill="none" stroke="#757575" d="M218.44,-147.53C233.69,-163.49 262.36,-193.04 288,-217 303.04,-231.05 320.59,-246.26 334.1,-257.71"/>
<polygon fill="#757575" stroke="#757575" points="332.03,-260.54 341.93,-264.32 336.54,-255.19 332.03,-260.54"/>
</g>
<!-- Probe.js&#45;&gt;DataAccess/index.js -->
<g id="edge11" class="edge">
<title>Probe.js&#45;&gt;DataAccess/index.js</title>
<path fill="none" stroke="#757575" d="M234.24,-147.57C249.86,-154.25 269.98,-162.75 288,-170 296.87,-173.57 306.43,-177.3 315.51,-180.78"/>
<polygon fill="#757575" stroke="#757575" points="314.52,-184.15 325.11,-184.45 317.01,-177.61 314.52,-184.15"/>
</g>
<!-- Probe.js&#45;&gt;Pen.js -->
<g id="edge12" class="edge">
<title>Probe.js&#45;&gt;Pen.js</title>
<path fill="none" stroke="#757575" d="M218.22,-124.42C232.57,-109.75 259.52,-84.93 288,-73 398.99,-26.49 436.16,-38 556.5,-38 556.5,-38 556.5,-38 1124,-38 1235.83,-38 1356.1,-106.91 1407.21,-139.85"/>
<polygon fill="#757575" stroke="#757575" points="1405.37,-142.83 1415.65,-145.37 1409.2,-136.97 1405.37,-142.83"/>
</g>
<!-- Probe.js&#45;&gt;Twitch.js -->
<g id="edge13" class="edge">
<title>Probe.js&#45;&gt;Twitch.js</title>
<path fill="none" stroke="#757575" d="M239.56,-137.48C335.59,-142.09 616.51,-157.07 653,-176 704.07,-202.5 741.96,-261.73 759.38,-293.28"/>
<polygon fill="#757575" stroke="#757575" points="756.5,-295.32 764.31,-302.48 762.67,-292.01 756.5,-295.32"/>
</g>
<!-- Utils/controllerApi.js -->
<g id="node15" class="node">
<title>Utils/controllerApi.js</title>
<path fill="none" stroke="#cfffac" d="M416.83,-127.5C416.83,-127.5 297.17,-127.5 297.17,-127.5 293.33,-127.5 289.5,-123.67 289.5,-119.83 289.5,-119.83 289.5,-112.17 289.5,-112.17 289.5,-108.33 293.33,-104.5 297.17,-104.5 297.17,-104.5 416.83,-104.5 416.83,-104.5 420.67,-104.5 424.5,-108.33 424.5,-112.17 424.5,-112.17 424.5,-119.83 424.5,-119.83 424.5,-123.67 420.67,-127.5 416.83,-127.5"/>
<text text-anchor="middle" x="357" y="-112.3" font-family="Arial" font-size="14.00" fill="#cfffac">Utils/controllerApi.js</text>
</g>
<!-- Probe.js&#45;&gt;Utils/controllerApi.js -->
<g id="edge14" class="edge">
<title>Probe.js&#45;&gt;Utils/controllerApi.js</title>
<path fill="none" stroke="#757575" d="M239.72,-131.66C251.46,-130.08 265.29,-128.22 279.23,-126.34"/>
<polygon fill="#757575" stroke="#757575" points="279.94,-129.78 289.38,-124.97 279,-122.84 279.94,-129.78"/>
</g>
<!-- Utils/intervalGenerator.js -->
<g id="node16" class="node">
<title>Utils/intervalGenerator.js</title>
<path fill="none" stroke="#c6c5fe" d="M845.33,-109.5C845.33,-109.5 696.67,-109.5 696.67,-109.5 692.83,-109.5 689,-105.67 689,-101.83 689,-101.83 689,-94.17 689,-94.17 689,-90.33 692.83,-86.5 696.67,-86.5 696.67,-86.5 845.33,-86.5 845.33,-86.5 849.17,-86.5 853,-90.33 853,-94.17 853,-94.17 853,-101.83 853,-101.83 853,-105.67 849.17,-109.5 845.33,-109.5"/>
<text text-anchor="middle" x="771" y="-94.3" font-family="Arial" font-size="14.00" fill="#c6c5fe">Utils/intervalGenerator.js</text>
</g>
<!-- Probe.js&#45;&gt;Utils/intervalGenerator.js -->
<g id="edge15" class="edge">
<title>Probe.js&#45;&gt;Utils/intervalGenerator.js</title>
<path fill="none" stroke="#757575" d="M224.47,-124.34C240.15,-114.33 264.51,-100.64 288,-95 423.57,-62.46 586.83,-73.55 684.32,-85.26"/>
<polygon fill="#757575" stroke="#757575" points="684.06,-88.75 694.41,-86.5 684.92,-81.8 684.06,-88.75"/>
</g>
<!-- Twitch.js&#45;&gt;Api.js -->
<g id="edge23" class="edge">
<title>Twitch.js&#45;&gt;Api.js</title>
<path fill="none" stroke="#757575" d="M805.24,-313.91C871,-313.72 1017.23,-313.3 1085.53,-313.1"/>
<polygon fill="#757575" stroke="#757575" points="1085.81,-316.6 1095.8,-313.07 1085.79,-309.6 1085.81,-316.6"/>
</g>
<!-- Twitch.js&#45;&gt;Cache/StreamInfoCache.js -->
<g id="edge24" class="edge">
<title>Twitch.js&#45;&gt;Cache/StreamInfoCache.js</title>
<path fill="none" stroke="#757575" d="M780.76,-325.5C798.39,-347.64 840.66,-395.68 889,-415 1061.95,-484.12 1128.28,-470.89 1308,-422 1346.36,-411.57 1385.5,-386.75 1409.4,-369.66"/>
<polygon fill="#757575" stroke="#757575" points="1411.47,-372.47 1417.48,-363.75 1407.35,-366.82 1411.47,-372.47"/>
</g>
<!-- Utils/getChannels.js -->
<g id="node19" class="node">
<title>Utils/getChannels.js</title>
<path fill="none" stroke="#c6c5fe" d="M1034.83,-287.5C1034.83,-287.5 914.17,-287.5 914.17,-287.5 910.33,-287.5 906.5,-283.67 906.5,-279.83 906.5,-279.83 906.5,-272.17 906.5,-272.17 906.5,-268.33 910.33,-264.5 914.17,-264.5 914.17,-264.5 1034.83,-264.5 1034.83,-264.5 1038.67,-264.5 1042.5,-268.33 1042.5,-272.17 1042.5,-272.17 1042.5,-279.83 1042.5,-279.83 1042.5,-283.67 1038.67,-287.5 1034.83,-287.5"/>
<text text-anchor="middle" x="974.5" y="-272.3" font-family="Arial" font-size="14.00" fill="#c6c5fe">Utils/getChannels.js</text>
</g>
<!-- Twitch.js&#45;&gt;Utils/getChannels.js -->
<g id="edge25" class="edge">
<title>Twitch.js&#45;&gt;Utils/getChannels.js</title>
<path fill="none" stroke="#757575" d="M805.27,-307.73C831.61,-302.76 869.34,-295.64 902.39,-289.41"/>
<polygon fill="#757575" stroke="#757575" points="903.3,-292.8 912.48,-287.51 902,-285.92 903.3,-292.8"/>
</g>
<!-- Utils/getEdgeAddr.js -->
<g id="node20" class="node">
<title>Utils/getEdgeAddr.js</title>
<path fill="none" stroke="#c6c5fe" d="M1035.83,-405.5C1035.83,-405.5 913.17,-405.5 913.17,-405.5 909.33,-405.5 905.5,-401.67 905.5,-397.83 905.5,-397.83 905.5,-390.17 905.5,-390.17 905.5,-386.33 909.33,-382.5 913.17,-382.5 913.17,-382.5 1035.83,-382.5 1035.83,-382.5 1039.67,-382.5 1043.5,-386.33 1043.5,-390.17 1043.5,-390.17 1043.5,-397.83 1043.5,-397.83 1043.5,-401.67 1039.67,-405.5 1035.83,-405.5"/>
<text text-anchor="middle" x="974.5" y="-390.3" font-family="Arial" font-size="14.00" fill="#c6c5fe">Utils/getEdgeAddr.js</text>
</g>
<!-- Twitch.js&#45;&gt;Utils/getEdgeAddr.js -->
<g id="edge26" class="edge">
<title>Twitch.js&#45;&gt;Utils/getEdgeAddr.js</title>
<path fill="none" stroke="#757575" d="M801.3,-325.63C836.62,-339.66 896.07,-363.26 935.05,-378.73"/>
<polygon fill="#757575" stroke="#757575" points="933.91,-382.05 944.49,-382.48 936.49,-375.54 933.91,-382.05"/>
</g>
<!-- Utils/intervalGenerator.js&#45;&gt;Pen.js -->
<g id="edge32" class="edge">
<title>Utils/intervalGenerator.js&#45;&gt;Pen.js</title>
<path fill="none" stroke="#757575" d="M853.32,-105.26C997.69,-118.16 1293.24,-144.56 1396.18,-153.76"/>
<polygon fill="#757575" stroke="#757575" points="1396.1,-157.26 1406.37,-154.67 1396.72,-150.29 1396.1,-157.26"/>
</g>
<!-- README.md -->
<g id="node17" class="node">
<title>README.md</title>
<path fill="none" stroke="#cfffac" d="M103.83,-229.5C103.83,-229.5 21.17,-229.5 21.17,-229.5 17.33,-229.5 13.5,-225.67 13.5,-221.83 13.5,-221.83 13.5,-214.17 13.5,-214.17 13.5,-210.33 17.33,-206.5 21.17,-206.5 21.17,-206.5 103.83,-206.5 103.83,-206.5 107.67,-206.5 111.5,-210.33 111.5,-214.17 111.5,-214.17 111.5,-221.83 111.5,-221.83 111.5,-225.67 107.67,-229.5 103.83,-229.5"/>
<text text-anchor="middle" x="62.5" y="-214.3" font-family="Arial" font-size="14.00" fill="#cfffac">README.md</text>
</g>
<!-- TestProbe.js -->
<g id="node18" class="node">
<title>TestProbe.js</title>
<path fill="none" stroke="#c6c5fe" d="M244.33,-267.5C244.33,-267.5 168.67,-267.5 168.67,-267.5 164.83,-267.5 161,-263.67 161,-259.83 161,-259.83 161,-252.17 161,-252.17 161,-248.33 164.83,-244.5 168.67,-244.5 168.67,-244.5 244.33,-244.5 244.33,-244.5 248.17,-244.5 252,-248.33 252,-252.17 252,-252.17 252,-259.83 252,-259.83 252,-263.67 248.17,-267.5 244.33,-267.5"/>
<text text-anchor="middle" x="206.5" y="-252.3" font-family="Arial" font-size="14.00" fill="#c6c5fe">TestProbe.js</text>
</g>
<!-- TestProbe.js&#45;&gt;Aggregator.js -->
<g id="edge19" class="edge">
<title>TestProbe.js&#45;&gt;Aggregator.js</title>
<path fill="none" stroke="#757575" d="M252.05,-262C266.77,-263.98 283.35,-266.22 298.88,-268.31"/>
<polygon fill="#757575" stroke="#757575" points="298.52,-271.79 308.9,-269.66 299.45,-264.85 298.52,-271.79"/>
</g>
<!-- TestProbe.js&#45;&gt;DataAccess/index.js -->
<g id="edge20" class="edge">
<title>TestProbe.js&#45;&gt;DataAccess/index.js</title>
<path fill="none" stroke="#757575" d="M234.24,-244.43C249.86,-237.75 269.98,-229.25 288,-222 296.87,-218.43 306.43,-214.7 315.51,-211.22"/>
<polygon fill="#757575" stroke="#757575" points="317.01,-214.39 325.11,-207.55 314.52,-207.85 317.01,-214.39"/>
</g>
<!-- TestProbe.js&#45;&gt;Pen.js -->
<g id="edge21" class="edge">
<title>TestProbe.js&#45;&gt;Pen.js</title>
<path fill="none" stroke="#757575" d="M252.19,-252.39C446.9,-236.65 1219.38,-174.22 1396.28,-159.93"/>
<polygon fill="#757575" stroke="#757575" points="1396.68,-163.41 1406.37,-159.11 1396.12,-156.43 1396.68,-163.41"/>
</g>
<!-- TestProbe.js&#45;&gt;Twitch.js -->
<g id="edge22" class="edge">
<title>TestProbe.js&#45;&gt;Twitch.js</title>
<path fill="none" stroke="#757575" d="M224.83,-267.65C240.55,-277.52 264.77,-290.99 288,-297 445.39,-337.72 641.28,-326.45 726.75,-318.63"/>
<polygon fill="#757575" stroke="#757575" points="727.23,-322.1 736.86,-317.68 726.58,-315.13 727.23,-322.1"/>
</g>
<!-- Utils/getChannels.js&#45;&gt;Api.js -->
<g id="edge27" class="edge">
<title>Utils/getChannels.js&#45;&gt;Api.js</title>
<path fill="none" stroke="#757575" d="M1021.05,-287.5C1041.94,-292.78 1066.35,-298.94 1085.93,-303.89"/>
<polygon fill="#757575" stroke="#757575" points="1085.13,-307.3 1095.69,-306.35 1086.85,-300.51 1085.13,-307.3"/>
</g>
<!-- Utils/getEdgeAddr.js&#45;&gt;Api.js -->
<g id="edge28" class="edge">
<title>Utils/getEdgeAddr.js&#45;&gt;Api.js</title>
<path fill="none" stroke="#757575" d="M1025.67,-382.42C1037.34,-378.69 1049.43,-373.94 1060,-368 1076.87,-358.52 1093.14,-343.81 1104.77,-331.99"/>
<polygon fill="#757575" stroke="#757575" points="1107.33,-334.37 1111.7,-324.72 1102.27,-329.54 1107.33,-334.37"/>
</g>
<!-- Utils/getEdgeAddr.js&#45;&gt;Cache/DNSCache.js -->
<g id="edge29" class="edge">
<title>Utils/getEdgeAddr.js&#45;&gt;Cache/DNSCache.js</title>
<path fill="none" stroke="#757575" d="M1039.04,-382.46C1123,-367.21 1270.56,-340.41 1359.16,-324.32"/>
<polygon fill="#757575" stroke="#757575" points="1359.92,-327.74 1369.13,-322.51 1358.66,-320.85 1359.92,-327.74"/>
</g>
<!-- Utils/getEdgeAddr.js&#45;&gt;Cache/StreamInfoCache.js -->
<g id="edge30" class="edge">
<title>Utils/getEdgeAddr.js&#45;&gt;Cache/StreamInfoCache.js</title>
<path fill="none" stroke="#757575" d="M1043.73,-404.54C1111.47,-412.97 1217.91,-420.74 1308,-403 1341.59,-396.39 1377.52,-380.63 1402.1,-368.37"/>
<polygon fill="#757575" stroke="#757575" points="1403.94,-371.36 1411.26,-363.7 1400.76,-365.12 1403.94,-371.36"/>
</g>
<!-- Utils/getAllEdge.js -->
<g id="node21" class="node">
<title>Utils/getAllEdge.js</title>
<path fill="none" stroke="#cfffac" d="M117.33,-270.5C117.33,-270.5 7.67,-270.5 7.67,-270.5 3.83,-270.5 0,-266.67 0,-262.83 0,-262.83 0,-255.17 0,-255.17 0,-251.33 3.83,-247.5 7.67,-247.5 7.67,-247.5 117.33,-247.5 117.33,-247.5 121.17,-247.5 125,-251.33 125,-255.17 125,-255.17 125,-262.83 125,-262.83 125,-266.67 121.17,-270.5 117.33,-270.5"/>
<text text-anchor="middle" x="62.5" y="-255.3" font-family="Arial" font-size="14.00" fill="#cfffac">Utils/getAllEdge.js</text>
</g>
<!-- Utils/service.js -->
<g id="node22" class="node">
<title>Utils/service.js</title>
<path fill="none" stroke="#cfffac" d="M106.33,-311.5C106.33,-311.5 18.67,-311.5 18.67,-311.5 14.83,-311.5 11,-307.67 11,-303.83 11,-303.83 11,-296.17 11,-296.17 11,-292.33 14.83,-288.5 18.67,-288.5 18.67,-288.5 106.33,-288.5 106.33,-288.5 110.17,-288.5 114,-292.33 114,-296.17 114,-296.17 114,-303.83 114,-303.83 114,-307.67 110.17,-311.5 106.33,-311.5"/>
<text text-anchor="middle" x="62.5" y="-296.3" font-family="Arial" font-size="14.00" fill="#cfffac">Utils/service.js</text>
</g>
<!-- app.js -->
<g id="node23" class="node">
<title>app.js</title>
<path fill="none" stroke="#c6c5fe" d="M81.83,-147.5C81.83,-147.5 43.17,-147.5 43.17,-147.5 39.33,-147.5 35.5,-143.67 35.5,-139.83 35.5,-139.83 35.5,-132.17 35.5,-132.17 35.5,-128.33 39.33,-124.5 43.17,-124.5 43.17,-124.5 81.83,-124.5 81.83,-124.5 85.67,-124.5 89.5,-128.33 89.5,-132.17 89.5,-132.17 89.5,-139.83 89.5,-139.83 89.5,-143.67 85.67,-147.5 81.83,-147.5"/>
<text text-anchor="middle" x="62.5" y="-132.3" font-family="Arial" font-size="14.00" fill="#c6c5fe">app.js</text>
</g>
<!-- app.js&#45;&gt;Api.js -->
<g id="edge33" class="edge">
<title>app.js&#45;&gt;Api.js</title>
<path fill="none" stroke="#757575" d="M89.8,-139.37C101.98,-142.2 115.76,-147.41 125,-157 163.63,-197.11 123.33,-236 161,-277 224.04,-345.62 262.82,-354 356,-354 356,-354 356,-354 772,-354 900.56,-354 933.04,-347.2 1060,-327 1068.44,-325.66 1077.46,-323.84 1085.92,-321.97"/>
<polygon fill="#757575" stroke="#757575" points="1086.94,-325.33 1095.9,-319.68 1085.37,-318.5 1086.94,-325.33"/>
</g>
<!-- app.js&#45;&gt;Pen.js -->
<g id="edge34" class="edge">
<title>app.js&#45;&gt;Pen.js</title>
<path fill="none" stroke="#757575" d="M77.05,-124.4C116.91,-91.52 238.4,0 356,0 356,0 356,0 1124,0 1207.78,0 1233.87,-1.96 1308,-41 1354.03,-65.24 1395.64,-111.02 1417.14,-137.23"/>
<polygon fill="#757575" stroke="#757575" points="1414.64,-139.71 1423.63,-145.32 1420.1,-135.33 1414.64,-139.71"/>
</g>
<!-- app.js&#45;&gt;Probe.js -->
<g id="edge35" class="edge">
<title>app.js&#45;&gt;Probe.js</title>
<path fill="none" stroke="#757575" d="M89.54,-136C110.12,-136 139.25,-136 163.17,-136"/>
<polygon fill="#757575" stroke="#757575" points="163.4,-139.5 173.4,-136 163.4,-132.5 163.4,-139.5"/>
</g>
<!-- deps.svg -->
<g id="node24" class="node">
<title>deps.svg</title>
<path fill="none" stroke="#cfffac" d="M90.33,-352.5C90.33,-352.5 34.67,-352.5 34.67,-352.5 30.83,-352.5 27,-348.67 27,-344.83 27,-344.83 27,-337.17 27,-337.17 27,-333.33 30.83,-329.5 34.67,-329.5 34.67,-329.5 90.33,-329.5 90.33,-329.5 94.17,-329.5 98,-333.33 98,-337.17 98,-337.17 98,-344.83 98,-344.83 98,-348.67 94.17,-352.5 90.33,-352.5"/>
<text text-anchor="middle" x="62.5" y="-337.3" font-family="Arial" font-size="14.00" fill="#cfffac">deps.svg</text>
</g>
<!-- nordvpn_start.sh -->
<g id="node25" class="node">
<title>nordvpn_start.sh</title>
<path fill="none" stroke="#cfffac" d="M113.33,-393.5C113.33,-393.5 11.67,-393.5 11.67,-393.5 7.83,-393.5 4,-389.67 4,-385.83 4,-385.83 4,-378.17 4,-378.17 4,-374.33 7.83,-370.5 11.67,-370.5 11.67,-370.5 113.33,-370.5 113.33,-370.5 117.17,-370.5 121,-374.33 121,-378.17 121,-378.17 121,-385.83 121,-385.83 121,-389.67 117.17,-393.5 113.33,-393.5"/>
<text text-anchor="middle" x="62.5" y="-378.3" font-family="Arial" font-size="14.00" fill="#cfffac">nordvpn_start.sh</text>
</g>
<!-- nordvpn_test.sh -->
<g id="node26" class="node">
<title>nordvpn_test.sh</title>
<path fill="none" stroke="#cfffac" d="M111.33,-434.5C111.33,-434.5 13.67,-434.5 13.67,-434.5 9.83,-434.5 6,-430.67 6,-426.83 6,-426.83 6,-419.17 6,-419.17 6,-415.33 9.83,-411.5 13.67,-411.5 13.67,-411.5 111.33,-411.5 111.33,-411.5 115.17,-411.5 119,-415.33 119,-419.17 119,-419.17 119,-426.83 119,-426.83 119,-430.67 115.17,-434.5 111.33,-434.5"/>
<text text-anchor="middle" x="62.5" y="-419.3" font-family="Arial" font-size="14.00" fill="#cfffac">nordvpn_test.sh</text>
</g>
<!-- package&#45;lock.json -->
<g id="node27" class="node">
<title>package&#45;lock.json</title>
<path fill="none" stroke="#cfffac" d="M117.33,-475.5C117.33,-475.5 7.67,-475.5 7.67,-475.5 3.83,-475.5 0,-471.67 0,-467.83 0,-467.83 0,-460.17 0,-460.17 0,-456.33 3.83,-452.5 7.67,-452.5 7.67,-452.5 117.33,-452.5 117.33,-452.5 121.17,-452.5 125,-456.33 125,-460.17 125,-460.17 125,-467.83 125,-467.83 125,-471.67 121.17,-475.5 117.33,-475.5"/>
<text text-anchor="middle" x="62.5" y="-460.3" font-family="Arial" font-size="14.00" fill="#cfffac">package&#45;lock.json</text>
</g>
<!-- package.json -->
<g id="node28" class="node">
<title>package.json</title>
<path fill="none" stroke="#cfffac" d="M102.83,-516.5C102.83,-516.5 22.17,-516.5 22.17,-516.5 18.33,-516.5 14.5,-512.67 14.5,-508.83 14.5,-508.83 14.5,-501.17 14.5,-501.17 14.5,-497.33 18.33,-493.5 22.17,-493.5 22.17,-493.5 102.83,-493.5 102.83,-493.5 106.67,-493.5 110.5,-497.33 110.5,-501.17 110.5,-501.17 110.5,-508.83 110.5,-508.83 110.5,-512.67 106.67,-516.5 102.83,-516.5"/>
<text text-anchor="middle" x="62.5" y="-501.3" font-family="Arial" font-size="14.00" fill="#cfffac">package.json</text>
</g>
<!-- start.sh -->
<g id="node29" class="node">
<title>start.sh</title>
<path fill="none" stroke="#cfffac" d="M85.33,-557.5C85.33,-557.5 39.67,-557.5 39.67,-557.5 35.83,-557.5 32,-553.67 32,-549.83 32,-549.83 32,-542.17 32,-542.17 32,-538.33 35.83,-534.5 39.67,-534.5 39.67,-534.5 85.33,-534.5 85.33,-534.5 89.17,-534.5 93,-538.33 93,-542.17 93,-542.17 93,-549.83 93,-549.83 93,-553.67 89.17,-557.5 85.33,-557.5"/>
<text text-anchor="middle" x="62.5" y="-542.3" font-family="Arial" font-size="14.00" fill="#cfffac">start.sh</text>
</g>
<!-- test_probe.sh -->
<g id="node30" class="node">
<title>test_probe.sh</title>
<path fill="none" stroke="#cfffac" d="M103.83,-598.5C103.83,-598.5 21.17,-598.5 21.17,-598.5 17.33,-598.5 13.5,-594.67 13.5,-590.83 13.5,-590.83 13.5,-583.17 13.5,-583.17 13.5,-579.33 17.33,-575.5 21.17,-575.5 21.17,-575.5 103.83,-575.5 103.83,-575.5 107.67,-575.5 111.5,-579.33 111.5,-583.17 111.5,-583.17 111.5,-590.83 111.5,-590.83 111.5,-594.67 107.67,-598.5 103.83,-598.5"/>
<text text-anchor="middle" x="62.5" y="-583.3" font-family="Arial" font-size="14.00" fill="#cfffac">test_probe.sh</text>
</g>
</g>
</svg>
